<svg width="28" height="28" viewBox="0 0 28 28" fill="none" xmlns="http://www.w3.org/2000/svg">
<path fill-rule="evenodd" clip-rule="evenodd" d="M5.32962 5.32961C5.75564 4.90358 6.43135 4.88857 6.83886 5.29607L22.3337 20.7909C22.7412 21.1984 22.7262 21.8741 22.3002 22.3002C21.8742 22.7262 21.1984 22.7412 20.7909 22.3337L5.29608 6.83885C4.88857 6.43134 4.90359 5.75564 5.32962 5.32961Z" fill="currentColor"/>
<path fill-rule="evenodd" clip-rule="evenodd" d="M5.32961 22.3002C4.90358 21.8742 4.88857 21.1985 5.29607 20.7909L20.7909 5.29609C21.1984 4.88858 21.8741 4.9036 22.3002 5.32963C22.7262 5.75565 22.7412 6.43136 22.3337 6.83887L6.83885 22.3337C6.43134 22.7412 5.75564 22.7262 5.32961 22.3002Z" fill="currentColor"/>
</svg>
