<svg viewBox="0 0 41 40" fill="none" xmlns="http://www.w3.org/2000/svg">
<path d="M20.4964 15.5537C18.0481 15.5537 16.0501 17.5518 16.0501 20.0001C16.0501 22.4484 18.0481 24.4464 20.4964 24.4464C22.9446 24.4464 24.9426 22.4484 24.9426 20.0001C24.9426 17.5518 22.9446 15.5537 20.4964 15.5537ZM33.8318 20.0001C33.8318 18.1588 33.8485 16.3343 33.7451 14.4964C33.6417 12.3616 33.1547 10.467 31.5937 8.90592C30.0293 7.34153 28.1381 6.85787 26.0033 6.75447C24.1621 6.65106 22.3376 6.66774 20.4997 6.66774C18.6585 6.66774 16.834 6.65106 14.9961 6.75447C12.8614 6.85787 10.9668 7.34486 9.40576 8.90592C7.84139 10.4703 7.35774 12.3616 7.25434 14.4964C7.15094 16.3376 7.16762 18.1622 7.16762 20.0001C7.16762 21.838 7.15094 23.6659 7.25434 25.5038C7.35774 27.6386 7.84473 29.5332 9.40576 31.0942C10.9701 32.6586 12.8614 33.1423 14.9961 33.2457C16.8373 33.3491 18.6618 33.3324 20.4997 33.3324C22.3409 33.3324 24.1655 33.3491 26.0033 33.2457C28.1381 33.1423 30.0326 32.6553 31.5937 31.0942C33.158 29.5299 33.6417 27.6386 33.7451 25.5038C33.8518 23.6659 33.8318 21.8413 33.8318 20.0001ZM20.4964 26.8414C16.7106 26.8414 13.6552 23.786 13.6552 20.0001C13.6552 16.2142 16.7106 13.1588 20.4964 13.1588C24.2822 13.1588 27.3375 16.2142 27.3375 20.0001C27.3375 23.786 24.2822 26.8414 20.4964 26.8414ZM27.6177 14.4763C26.7338 14.4763 26.02 13.7625 26.02 12.8786C26.02 11.9947 26.7338 11.2809 27.6177 11.2809C28.5016 11.2809 29.2154 11.9947 29.2154 12.8786C29.2157 13.0885 29.1746 13.2964 29.0944 13.4903C29.0142 13.6843 28.8965 13.8606 28.7481 14.009C28.5996 14.1574 28.4234 14.2751 28.2295 14.3553C28.0355 14.4355 27.8276 14.4766 27.6177 14.4763Z" fill="currentColor"/>
</svg>
