<svg width="28" height="28" viewBox="0 0 28 28" fill="none" xmlns="http://www.w3.org/2000/svg">
<path fill-rule="evenodd" clip-rule="evenodd" d="M2 5.09091C2 4.48842 2.46718 4 3.04348 4H24.9565C25.5328 4 26 4.48842 26 5.09091C26 5.6934 25.5328 6.18182 24.9565 6.18182H3.04348C2.46718 6.18182 2 5.6934 2 5.09091ZM2 14C2 13.3975 2.46718 12.9091 3.04348 12.9091H24.9565C25.5328 12.9091 26 13.3975 26 14C26 14.6025 25.5328 15.0909 24.9565 15.0909H3.04348C2.46718 15.0909 2 14.6025 2 14ZM2 22.9091C2 22.3066 2.46718 21.8182 3.04348 21.8182H24.9565C25.5328 21.8182 26 22.3066 26 22.9091C26 23.5116 25.5328 24 24.9565 24H3.04348C2.46718 24 2 23.5116 2 22.9091Z" fill="currentColor"/>
</svg>
