<svg viewBox="0 0 41 40" fill="none" xmlns="http://www.w3.org/2000/svg">
<path d="M37.1667 9.8299C35.9409 10.3644 34.6241 10.7256 33.2397 10.8889C34.6681 10.0477 35.7368 8.72395 36.2462 7.16447C34.9042 7.94891 33.4355 8.50108 31.9038 8.79696C30.8738 7.7147 29.5095 6.99736 28.0228 6.75631C26.536 6.51526 25.01 6.76399 23.6816 7.46388C22.3533 8.16377 21.2969 9.27567 20.6764 10.6269C20.056 11.9782 19.9063 13.4932 20.2505 14.9368C17.5312 14.8025 14.871 14.1069 12.4426 12.8954C10.0141 11.6838 7.87172 9.98327 6.15435 7.90414C5.56713 8.90097 5.22948 10.0567 5.22948 11.2876C5.22883 12.3956 5.50611 13.4867 6.03672 14.464C6.56734 15.4414 7.33489 16.2747 8.27126 16.8901C7.18532 16.856 6.12333 16.5673 5.1737 16.0478V16.1345C5.17359 17.6886 5.71985 19.1949 6.71981 20.3977C7.71977 21.6006 9.11182 22.426 10.6598 22.7338C9.65237 23.0021 8.59619 23.0416 7.57101 22.8494C8.00774 24.1866 8.85847 25.3559 10.0041 26.1937C11.1497 27.0315 12.5329 27.4957 13.9599 27.5215C11.5374 29.3929 8.54562 30.4081 5.46584 30.4036C4.92028 30.4037 4.37519 30.3724 3.83337 30.3097C6.95953 32.2877 10.5986 33.3375 14.3152 33.3334C26.8963 33.3334 33.7741 23.0791 33.7741 14.1856C33.7741 13.8967 33.7667 13.6049 33.7535 13.3159C35.0913 12.3638 36.2461 11.1849 37.1638 9.83424L37.1667 9.8299Z" fill="currentColor"/>
</svg>
